<svg width="792" height="792" viewBox="0 0 792 792" fill="none" xmlns="http://www.w3.org/2000/svg">
<rect x="268" y="28" width="64" height="64" fill="white"/>
<path d="M204 92H268V156H204V92Z" fill="white"/>
<rect x="204" y="700" width="64" height="64" fill="white"/>
<rect x="204" y="476" width="64" height="64" fill="white"/>
<rect x="204" y="188" width="64" height="64" fill="white"/>
<rect x="460" y="188" width="64" height="64" fill="white"/>
<rect x="524" y="188" width="64" height="64" fill="white"/>
<rect x="524" y="92" width="64" height="64" fill="white"/>
<rect x="460" y="284" width="64" height="64" fill="white"/>
<rect x="460" y="380" width="64" height="64" fill="white"/>
<rect x="204" y="284" width="64" height="64" fill="white"/>
<rect x="204" y="380" width="64" height="64" fill="white"/>
<rect x="268" y="188" width="64" height="64" fill="white"/>
<rect x="524" y="284" width="64" height="64" fill="white"/>
<rect x="524" y="380" width="64" height="64" fill="white"/>
<rect x="268" y="284" width="64" height="64" fill="white"/>
<rect x="268" y="380" width="64" height="64" fill="white"/>
<rect x="268" y="92" width="256" height="64" fill="white"/>
<rect x="268" y="700" width="256" height="64" fill="white"/>
<rect x="268" y="476" width="256" height="64" fill="white"/>
<rect x="364" y="28" width="64" height="64" fill="white"/>
<rect x="364" y="636" width="64" height="64" fill="white"/>
<rect x="364" y="572" width="64" height="64" fill="white"/>
<rect x="364" y="156" width="64" height="320" fill="white"/>
<rect x="460" y="28" width="64" height="64" fill="white"/>
<rect x="524" y="700" width="64" height="64" fill="white"/>
<rect x="524" y="476" width="64" height="64" fill="white"/>
</svg>
